<svg width="178" height="129" viewBox="0 0 178 129" fill="none" xmlns="http://www.w3.org/2000/svg">
<path d="M50.4285 119H127.571C150.291 119 167.471 106.03 163.401 91.9382L153.611 57.9889C147.931 38.3072 120.735 24 89 24C57.2647 24 30.0686 38.3072 24.3887 57.9889L14.5993 91.9382C10.5289 106.03 27.7091 119 50.4285 119Z" fill="#424242"/>
<path d="M75.75 34.8333L98.3462 38L111 0H64L75.75 34.8333Z" fill="#424242"/>
<path d="M102.429 24H72.5714C71.7036 24 71 24.8954 71 26C71 27.1046 71.7036 28 72.5714 28H102.429C103.296 28 104 27.1046 104 26C104 24.8954 103.296 24 102.429 24Z" fill="#8399C7"/>
</svg>
